<svg width="388" height="388" viewBox="0 0 388 388" fill="none" xmlns="http://www.w3.org/2000/svg">
<rect width="388" height="388" fill="white"/>
<rect x="44" y="38" width="300" height="300" stroke="#FF0000" stroke-width="2"/>
<path d="M31.358 37H29.5114L34.8523 22.4545H36.6705L42.0114 37H40.1648L35.8182 24.7557H35.7045L31.358 37ZM32.0398 31.3182H39.483V32.8807H32.0398V31.3182Z" fill="black"/>
<path d="M346.761 37V22.4545H351.847C352.86 22.4545 353.696 22.6297 354.354 22.9801C355.012 23.3258 355.502 23.7921 355.824 24.3793C356.146 24.9616 356.307 25.608 356.307 26.3182C356.307 26.9432 356.196 27.4593 355.973 27.8665C355.755 28.2737 355.466 28.5956 355.107 28.8324C354.751 29.0691 354.366 29.2443 353.949 29.358V29.5C354.394 29.5284 354.841 29.6847 355.291 29.9688C355.741 30.2528 356.117 30.66 356.42 31.1903C356.723 31.7206 356.875 32.3693 356.875 33.1364C356.875 33.8655 356.709 34.5213 356.378 35.1037C356.046 35.6861 355.523 36.1477 354.808 36.4886C354.093 36.8295 353.163 37 352.017 37H346.761ZM348.523 35.4375H352.017C353.168 35.4375 353.984 35.215 354.467 34.7699C354.955 34.3201 355.199 33.7756 355.199 33.1364C355.199 32.6439 355.073 32.1894 354.822 31.7727C354.571 31.3513 354.214 31.0152 353.75 30.7642C353.286 30.5085 352.737 30.3807 352.102 30.3807H348.523V35.4375ZM348.523 28.8466H351.79C352.32 28.8466 352.798 28.7424 353.224 28.5341C353.655 28.3258 353.996 28.0322 354.247 27.6534C354.503 27.2746 354.631 26.8295 354.631 26.3182C354.631 25.679 354.408 25.1368 353.963 24.6918C353.518 24.242 352.813 24.017 351.847 24.017H348.523V28.8466Z" fill="black"/>
<path d="M358.466 348H356.705C356.6 347.493 356.418 347.048 356.158 346.665C355.902 346.281 355.589 345.959 355.22 345.699C354.856 345.434 354.451 345.235 354.006 345.102C353.561 344.97 353.097 344.903 352.614 344.903C351.733 344.903 350.935 345.126 350.22 345.571C349.51 346.016 348.944 346.672 348.523 347.538C348.106 348.405 347.898 349.468 347.898 350.727C347.898 351.987 348.106 353.05 348.523 353.916C348.944 354.783 349.51 355.438 350.22 355.884C350.935 356.329 351.733 356.551 352.614 356.551C353.097 356.551 353.561 356.485 354.006 356.352C354.451 356.22 354.856 356.023 355.22 355.763C355.589 355.498 355.902 355.173 356.158 354.79C356.418 354.402 356.6 353.956 356.705 353.455H358.466C358.333 354.198 358.092 354.863 357.741 355.45C357.391 356.037 356.955 356.537 356.435 356.949C355.914 357.356 355.329 357.666 354.68 357.879C354.036 358.092 353.348 358.199 352.614 358.199C351.373 358.199 350.27 357.896 349.304 357.29C348.338 356.684 347.578 355.822 347.024 354.705C346.47 353.587 346.193 352.261 346.193 350.727C346.193 349.193 346.47 347.867 347.024 346.75C347.578 345.633 348.338 344.771 349.304 344.165C350.27 343.559 351.373 343.256 352.614 343.256C353.348 343.256 354.036 343.362 354.68 343.575C355.329 343.788 355.914 344.101 356.435 344.513C356.955 344.92 357.391 345.417 357.741 346.004C358.092 346.587 358.333 347.252 358.466 348Z" fill="black"/>
<path d="M35.25 358H30.7614V343.455H35.4489C36.8598 343.455 38.0672 343.746 39.071 344.328C40.0748 344.906 40.8442 345.737 41.3793 346.821C41.9143 347.901 42.1818 349.193 42.1818 350.699C42.1818 352.214 41.9119 353.518 41.3722 354.612C40.8324 355.701 40.0464 356.539 39.0142 357.126C37.982 357.709 36.7273 358 35.25 358ZM32.5227 356.438H35.1364C36.339 356.438 37.3357 356.205 38.1264 355.741C38.9171 355.277 39.5066 354.617 39.8949 353.76C40.2831 352.903 40.4773 351.883 40.4773 350.699C40.4773 349.525 40.2855 348.514 39.902 347.666C39.5185 346.814 38.9455 346.161 38.1832 345.706C37.4209 345.247 36.4716 345.017 35.3352 345.017H32.5227V356.438Z" fill="black"/>
<path d="M129.761 365V350.455H134.847C135.86 350.455 136.696 350.63 137.354 350.98C138.012 351.326 138.502 351.792 138.824 352.379C139.146 352.962 139.307 353.608 139.307 354.318C139.307 354.943 139.196 355.459 138.973 355.866C138.755 356.274 138.466 356.596 138.107 356.832C137.751 357.069 137.366 357.244 136.949 357.358V357.5C137.394 357.528 137.841 357.685 138.291 357.969C138.741 358.253 139.117 358.66 139.42 359.19C139.723 359.721 139.875 360.369 139.875 361.136C139.875 361.866 139.709 362.521 139.378 363.104C139.046 363.686 138.523 364.148 137.808 364.489C137.093 364.83 136.163 365 135.017 365H129.761ZM131.523 363.438H135.017C136.168 363.438 136.984 363.215 137.467 362.77C137.955 362.32 138.199 361.776 138.199 361.136C138.199 360.644 138.073 360.189 137.822 359.773C137.571 359.351 137.214 359.015 136.75 358.764C136.286 358.509 135.737 358.381 135.102 358.381H131.523V363.438ZM131.523 356.847H134.79C135.32 356.847 135.798 356.742 136.224 356.534C136.655 356.326 136.996 356.032 137.247 355.653C137.503 355.275 137.631 354.83 137.631 354.318C137.631 353.679 137.408 353.137 136.963 352.692C136.518 352.242 135.813 352.017 134.847 352.017H131.523V356.847ZM149.417 360.54V354.091H151.093V365H149.417V363.153H149.303C149.048 363.707 148.65 364.179 148.11 364.567C147.57 364.95 146.888 365.142 146.065 365.142C145.383 365.142 144.777 364.993 144.246 364.695C143.716 364.392 143.299 363.937 142.996 363.331C142.693 362.72 142.542 361.951 142.542 361.023V354.091H144.218V360.909C144.218 361.705 144.441 362.339 144.886 362.812C145.335 363.286 145.908 363.523 146.604 363.523C147.021 363.523 147.445 363.416 147.876 363.203C148.311 362.99 148.676 362.663 148.969 362.223C149.268 361.783 149.417 361.222 149.417 360.54ZM154.163 354.091H155.839V365.795C155.839 366.468 155.723 367.05 155.491 367.543C155.264 368.035 154.918 368.416 154.454 368.686C153.995 368.956 153.415 369.091 152.714 369.091C152.657 369.091 152.6 369.091 152.544 369.091C152.487 369.091 152.43 369.091 152.373 369.091V367.528C152.43 367.528 152.482 367.528 152.529 367.528C152.577 367.528 152.629 367.528 152.686 367.528C153.197 367.528 153.571 367.377 153.808 367.074C154.045 366.776 154.163 366.349 154.163 365.795V354.091ZM154.987 352.273C154.66 352.273 154.378 352.161 154.142 351.939C153.91 351.716 153.794 351.449 153.794 351.136C153.794 350.824 153.91 350.556 154.142 350.334C154.378 350.111 154.66 350 154.987 350C155.314 350 155.593 350.111 155.825 350.334C156.062 350.556 156.18 350.824 156.18 351.136C156.18 351.449 156.062 351.716 155.825 351.939C155.593 352.161 155.314 352.273 154.987 352.273ZM165.784 360.54V354.091H167.46V365H165.784V363.153H165.67C165.415 363.707 165.017 364.179 164.477 364.567C163.938 364.95 163.256 365.142 162.432 365.142C161.75 365.142 161.144 364.993 160.614 364.695C160.083 364.392 159.667 363.937 159.364 363.331C159.061 362.72 158.909 361.951 158.909 361.023V354.091H160.585V360.909C160.585 361.705 160.808 362.339 161.253 362.812C161.703 363.286 162.276 363.523 162.972 363.523C163.388 363.523 163.812 363.416 164.243 363.203C164.679 362.99 165.043 362.663 165.337 362.223C165.635 361.783 165.784 361.222 165.784 360.54ZM170.53 365V354.091H172.15V355.739H172.263C172.462 355.199 172.822 354.761 173.343 354.425C173.864 354.089 174.451 353.92 175.104 353.92C175.227 353.92 175.381 353.923 175.566 353.928C175.75 353.932 175.89 353.939 175.985 353.949V355.653C175.928 355.639 175.798 355.618 175.594 355.589C175.395 355.556 175.185 355.54 174.962 355.54C174.432 355.54 173.958 355.651 173.542 355.874C173.13 356.091 172.803 356.394 172.561 356.783C172.325 357.166 172.206 357.604 172.206 358.097V365H170.53ZM191.778 354.091C191.693 353.371 191.348 352.812 190.741 352.415C190.135 352.017 189.392 351.818 188.511 351.818C187.867 351.818 187.304 351.922 186.821 352.131C186.343 352.339 185.969 352.625 185.699 352.99C185.434 353.355 185.301 353.769 185.301 354.233C185.301 354.621 185.393 354.955 185.578 355.234C185.768 355.509 186.009 355.739 186.303 355.923C186.596 356.103 186.904 356.252 187.226 356.371C187.548 356.484 187.844 356.577 188.114 356.648L189.591 357.045C189.97 357.145 190.391 357.282 190.855 357.457C191.324 357.633 191.771 357.872 192.197 358.175C192.628 358.473 192.983 358.857 193.263 359.325C193.542 359.794 193.682 360.369 193.682 361.051C193.682 361.837 193.476 362.547 193.064 363.182C192.657 363.816 192.06 364.321 191.274 364.695C190.493 365.069 189.544 365.256 188.426 365.256C187.384 365.256 186.482 365.088 185.72 364.751C184.963 364.415 184.366 363.946 183.93 363.345C183.5 362.744 183.256 362.045 183.199 361.25H185.017C185.064 361.799 185.249 362.254 185.571 362.614C185.898 362.969 186.31 363.234 186.807 363.409C187.309 363.58 187.848 363.665 188.426 363.665C189.098 363.665 189.702 363.556 190.237 363.338C190.772 363.116 191.196 362.808 191.509 362.415C191.821 362.017 191.977 361.553 191.977 361.023C191.977 360.54 191.842 360.147 191.572 359.844C191.303 359.541 190.947 359.295 190.507 359.105C190.067 358.916 189.591 358.75 189.08 358.608L187.29 358.097C186.153 357.77 185.254 357.304 184.591 356.697C183.928 356.091 183.597 355.298 183.597 354.318C183.597 353.504 183.817 352.794 184.257 352.188C184.702 351.577 185.299 351.103 186.047 350.767C186.8 350.426 187.64 350.256 188.568 350.256C189.506 350.256 190.339 350.424 191.068 350.76C191.797 351.091 192.375 351.546 192.801 352.124C193.232 352.701 193.459 353.357 193.483 354.091H191.778ZM199.561 365.256C198.869 365.256 198.242 365.125 197.679 364.865C197.115 364.6 196.668 364.219 196.336 363.722C196.005 363.22 195.839 362.614 195.839 361.903C195.839 361.278 195.962 360.772 196.208 360.384C196.455 359.991 196.784 359.683 197.196 359.46C197.608 359.238 198.062 359.072 198.559 358.963C199.061 358.849 199.565 358.759 200.072 358.693C200.735 358.608 201.272 358.544 201.684 358.501C202.101 358.454 202.404 358.376 202.593 358.267C202.788 358.158 202.885 357.969 202.885 357.699V357.642C202.885 356.941 202.693 356.397 202.309 356.009C201.931 355.62 201.355 355.426 200.583 355.426C199.783 355.426 199.156 355.601 198.701 355.952C198.247 356.302 197.927 356.676 197.743 357.074L196.152 356.506C196.436 355.843 196.815 355.327 197.288 354.957C197.766 354.583 198.287 354.323 198.85 354.176C199.419 354.025 199.977 353.949 200.527 353.949C200.877 353.949 201.279 353.991 201.734 354.077C202.193 354.157 202.636 354.325 203.062 354.581C203.493 354.837 203.85 355.223 204.135 355.739C204.419 356.255 204.561 356.946 204.561 357.812V365H202.885V363.523H202.799C202.686 363.759 202.496 364.013 202.231 364.283C201.966 364.553 201.613 364.782 201.173 364.972C200.733 365.161 200.195 365.256 199.561 365.256ZM199.816 363.75C200.479 363.75 201.038 363.62 201.493 363.359C201.952 363.099 202.297 362.763 202.529 362.351C202.766 361.939 202.885 361.506 202.885 361.051V359.517C202.814 359.602 202.657 359.68 202.416 359.751C202.179 359.818 201.904 359.877 201.592 359.929C201.284 359.976 200.984 360.019 200.69 360.057C200.401 360.09 200.167 360.118 199.987 360.142C199.551 360.199 199.144 360.291 198.765 360.419C198.391 360.542 198.088 360.729 197.856 360.98C197.629 361.226 197.515 361.562 197.515 361.989C197.515 362.571 197.731 363.011 198.162 363.31C198.597 363.603 199.149 363.75 199.816 363.75ZM209.296 358.438V365H207.62V354.091H209.239V355.795H209.381C209.637 355.241 210.025 354.796 210.546 354.46C211.067 354.119 211.739 353.949 212.563 353.949C213.302 353.949 213.948 354.1 214.502 354.403C215.056 354.702 215.487 355.156 215.795 355.767C216.103 356.373 216.256 357.14 216.256 358.068V365H214.58V358.182C214.58 357.325 214.358 356.657 213.913 356.179C213.468 355.696 212.857 355.455 212.08 355.455C211.545 355.455 211.067 355.571 210.646 355.803C210.229 356.035 209.9 356.373 209.658 356.818C209.417 357.263 209.296 357.803 209.296 358.438ZM223.723 369.318C222.913 369.318 222.217 369.214 221.635 369.006C221.052 368.802 220.567 368.532 220.179 368.196C219.795 367.865 219.49 367.509 219.262 367.131L220.598 366.193C220.749 366.392 220.941 366.619 221.173 366.875C221.405 367.135 221.722 367.36 222.125 367.55C222.532 367.744 223.065 367.841 223.723 367.841C224.603 367.841 225.33 367.628 225.903 367.202C226.476 366.776 226.762 366.108 226.762 365.199V362.983H226.62C226.497 363.182 226.322 363.428 226.095 363.722C225.872 364.01 225.55 364.268 225.129 364.496C224.712 364.718 224.149 364.83 223.439 364.83C222.558 364.83 221.767 364.621 221.066 364.205C220.37 363.788 219.819 363.182 219.412 362.386C219.009 361.591 218.808 360.625 218.808 359.489C218.808 358.371 219.004 357.398 219.397 356.57C219.79 355.736 220.337 355.092 221.038 354.638C221.739 354.179 222.548 353.949 223.467 353.949C224.177 353.949 224.741 354.067 225.157 354.304C225.579 354.536 225.901 354.801 226.123 355.099C226.35 355.393 226.526 355.634 226.649 355.824H226.819V354.091H228.439V365.312C228.439 366.25 228.225 367.012 227.799 367.599C227.378 368.191 226.81 368.625 226.095 368.899C225.385 369.179 224.594 369.318 223.723 369.318ZM223.666 363.324C224.338 363.324 224.906 363.17 225.37 362.862C225.834 362.554 226.187 362.112 226.429 361.534C226.67 360.956 226.791 360.265 226.791 359.46C226.791 358.674 226.672 357.981 226.436 357.379C226.199 356.778 225.849 356.307 225.385 355.966C224.921 355.625 224.348 355.455 223.666 355.455C222.956 355.455 222.364 355.634 221.89 355.994C221.422 356.354 221.069 356.837 220.832 357.443C220.6 358.049 220.484 358.722 220.484 359.46C220.484 360.218 220.602 360.888 220.839 361.47C221.081 362.048 221.436 362.502 221.904 362.834C222.378 363.161 222.965 363.324 223.666 363.324ZM233.069 361.023L233.041 358.949H233.382L238.154 354.091H240.228L235.143 359.233H235.001L233.069 361.023ZM231.507 365V350.455H233.183V365H231.507ZM238.439 365L234.177 359.602L235.37 358.438L240.569 365H238.439ZM245.596 365.256C244.905 365.256 244.277 365.125 243.714 364.865C243.15 364.6 242.703 364.219 242.371 363.722C242.04 363.22 241.874 362.614 241.874 361.903C241.874 361.278 241.997 360.772 242.244 360.384C242.49 359.991 242.819 359.683 243.231 359.46C243.643 359.238 244.097 359.072 244.594 358.963C245.096 358.849 245.601 358.759 246.107 358.693C246.77 358.608 247.308 358.544 247.719 358.501C248.136 358.454 248.439 358.376 248.629 358.267C248.823 358.158 248.92 357.969 248.92 357.699V357.642C248.92 356.941 248.728 356.397 248.344 356.009C247.966 355.62 247.39 355.426 246.619 355.426C245.818 355.426 245.191 355.601 244.737 355.952C244.282 356.302 243.962 356.676 243.778 357.074L242.187 356.506C242.471 355.843 242.85 355.327 243.323 354.957C243.801 354.583 244.322 354.323 244.886 354.176C245.454 354.025 246.013 353.949 246.562 353.949C246.912 353.949 247.315 353.991 247.769 354.077C248.228 354.157 248.671 354.325 249.097 354.581C249.528 354.837 249.886 355.223 250.17 355.739C250.454 356.255 250.596 356.946 250.596 357.812V365H248.92V363.523H248.835C248.721 363.759 248.531 364.013 248.266 364.283C248.001 364.553 247.648 364.782 247.208 364.972C246.768 365.161 246.23 365.256 245.596 365.256ZM245.852 363.75C246.514 363.75 247.073 363.62 247.528 363.359C247.987 363.099 248.333 362.763 248.565 362.351C248.801 361.939 248.92 361.506 248.92 361.051V359.517C248.849 359.602 248.692 359.68 248.451 359.751C248.214 359.818 247.94 359.877 247.627 359.929C247.319 359.976 247.019 360.019 246.725 360.057C246.436 360.09 246.202 360.118 246.022 360.142C245.586 360.199 245.179 360.291 244.8 360.419C244.426 360.542 244.123 360.729 243.891 360.98C243.664 361.226 243.55 361.562 243.55 361.989C243.55 362.571 243.766 363.011 244.197 363.31C244.632 363.603 245.184 363.75 245.852 363.75ZM253.655 365V354.091H255.275V355.739H255.388C255.587 355.199 255.947 354.761 256.468 354.425C256.989 354.089 257.576 353.92 258.229 353.92C258.352 353.92 258.506 353.923 258.691 353.928C258.875 353.932 259.015 353.939 259.11 353.949V355.653C259.053 355.639 258.923 355.618 258.719 355.589C258.52 355.556 258.31 355.54 258.087 355.54C257.557 355.54 257.083 355.651 256.667 355.874C256.255 356.091 255.928 356.394 255.686 356.783C255.45 357.166 255.331 357.604 255.331 358.097V365H253.655Z" fill="black"/>
</svg>
